<svg width="512" height="512" viewBox="0 0 512 512" fill="none" xmlns="http://www.w3.org/2000/svg">
<g clip-path="url(#clip0)">
<path d="M40.3463 261.886L56.1675 277.707L153.475 379.496L231.068 440.754L283.897 415.338C319.948 448.627 369.428 399.087 336.156 363.08L213.098 213.691L40.2492 67.1743C-13.4475 120.977 -13.4163 208.123 40.3463 261.886V261.886Z" fill="#FFCFBC"/>
<path d="M251.696 83.6132L235.156 67.0734C181.332 13.2427 94.0165 13.2843 40.2493 67.1739L336.155 363.079C372.206 396.341 421.684 346.894 388.413 310.821C415.672 337.52 459.993 311.026 450.139 274.79L413.207 126.294L251.696 83.6132Z" fill="#FFC3AA"/>
<path d="M276.193 59.1162C264.511 70.7977 227.75 107.558 215.505 119.804L237.58 141.879C261.443 165.757 300.144 165.703 323.985 141.879L362.937 180.831L429.543 137.732L477.087 66.6798C430.738 13.8378 346.546 -5.89 276.193 59.1162V59.1162Z" fill="#FFB89B"/>
<path d="M362.937 180.829L440.671 258.564C445.342 263.235 448.492 268.849 450.139 274.792L471.004 253.927C530.063 189.975 519.184 114.67 477.088 66.6787L362.937 180.829Z" fill="#FFAD8B"/>
<path d="M167.372 376.395C166.831 376.879 166.299 377.378 165.781 377.898C165.321 378.411 164.849 378.917 164.357 379.41L167.372 376.395Z" fill="#FFD8C1"/>
<path d="M164.356 379.41C164.849 378.917 165.321 378.412 165.78 377.898C165.295 378.387 164.819 378.889 164.356 379.41Z" fill="#FFD8C1"/>
<path d="M151.292 392.475C150.798 392.968 150.326 393.473 149.867 393.987C150.353 393.498 150.828 392.996 151.292 392.475Z" fill="#FFD8C1"/>
<path d="M164.091 391.747C164.091 391.747 165.295 378.387 165.78 377.898C178.765 363.389 178.293 341.089 164.356 327.152C149.925 312.721 126.527 312.721 112.097 327.152L117.323 321.926C131.753 307.496 131.753 284.099 117.323 269.669C102.892 255.238 79.4956 255.238 65.0639 269.669L50.258 284.475C35.8274 298.905 35.8274 322.302 50.258 336.733C64.6885 351.165 88.0849 351.164 102.515 336.733L97.2898 341.959C82.8593 356.389 82.8593 379.787 97.2898 394.217C111.857 408.891 135.535 408.409 149.865 393.988C150.326 393.474 164.091 391.747 164.091 391.747V391.747Z" fill="#FFB89B"/>
<path d="M232.291 415.991L218.356 429.926C232.787 415.495 232.787 392.099 218.356 377.668C204.316 363.525 181.813 363.466 167.372 376.394L164.356 379.41L151.292 392.474C150.828 392.995 150.353 393.498 149.867 393.986C136.882 408.495 137.354 430.794 151.292 444.733C165.722 459.163 189.119 459.163 203.549 444.733L217.484 430.798C203.054 445.228 203.054 468.625 217.484 483.056C231.915 497.487 255.311 497.487 269.743 483.056L284.55 468.249C298.98 453.819 298.98 430.422 284.55 415.991C270.118 401.56 246.722 401.56 232.291 415.991V415.991Z" fill="#FFB89B"/>
</g>
<defs>
<clipPath id="clip0">
<rect width="512" height="512" fill="white"/>
</clipPath>
</defs>
</svg>
