<svg width="1081" height="785" viewBox="0 0 1081 785" fill="none" xmlns="http://www.w3.org/2000/svg">
<g clip-path="url(#clip0)">
<path d="M388.595 215.941C378.533 226.39 366.415 234.64 353.005 240.172C339.595 245.703 325.184 248.396 310.681 248.079C296.179 247.763 281.899 244.444 268.743 238.332C255.587 232.221 243.84 223.449 234.244 212.571L0 434.296L329.393 782.288L643.366 485.096L388.595 215.941Z" fill="#F2F2F2"/>
<path d="M312.779 226.184C325.14 226.199 337.378 223.712 348.753 218.874C360.129 214.036 370.408 206.946 378.972 198.031L313.654 129.024L243.867 195.081C252.481 204.867 263.084 212.704 274.967 218.067C286.851 223.43 299.741 226.198 312.779 226.184Z" fill="#F2F2F2"/>
<path d="M826.972 327.104C826.994 348.778 822.741 370.244 814.457 390.273C806.173 410.302 794.02 428.5 778.694 443.826C763.368 459.152 745.17 471.305 725.141 479.589C705.112 487.873 683.646 492.126 661.972 492.104C661.032 492.104 660.092 492.094 659.152 492.074C655.192 492.014 651.282 491.814 647.392 491.474C615.503 488.647 585.126 476.604 559.961 456.814C534.797 437.024 515.933 410.341 505.669 380.017C495.404 349.693 494.183 317.038 502.153 286.032C510.123 255.026 526.94 227.008 550.556 205.393C574.171 183.778 603.564 169.499 635.152 164.297C666.741 159.095 699.16 163.194 728.46 176.095C757.759 188.996 782.673 210.142 800.165 236.955C817.656 263.768 826.971 295.09 826.972 327.104Z" fill="#FCD34D"/>
<path opacity="0.1" d="M757.592 267.394C767.936 249.153 774.687 229.099 777.48 208.316C755.535 187.159 728.157 172.495 698.384 165.951C668.612 159.407 637.608 161.238 608.813 171.243C580.018 181.247 554.557 199.032 535.255 222.626C515.953 246.219 503.564 274.699 499.463 304.905C526.563 331.103 561.843 347.191 599.392 350.474C603.282 350.814 607.192 351.014 611.152 351.074C612.092 351.094 613.032 351.104 613.972 351.104C643.183 351.135 671.877 343.4 697.114 328.69C722.35 313.981 743.223 292.826 757.592 267.394Z" fill="black"/>
<path d="M734.972 488.104H469.972V784.104H734.972V488.104Z" fill="#2F2E41"/>
<path opacity="0.1" d="M819.842 388.704C809.586 412.781 793.755 434.077 773.655 450.837C753.555 467.598 729.761 479.342 704.232 485.104H740.972V781.104H496.552L633.722 543.514L665.152 489.074L667.442 485.104L771.472 304.924L819.842 388.704Z" fill="black"/>
<path d="M805.472 306.924L943.222 545.514L1080.97 784.104H805.472H529.972L667.722 545.514L805.472 306.924Z" fill="#3F3D56"/>
<path d="M171.505 736.835L169.68 752.045L159.337 756.912L147.777 753.261L139.868 756.912L137.435 742.919L151.428 727.1L171.505 736.835Z" fill="#9F616A"/>
<path d="M164.204 748.394C164.204 748.394 173.637 737.398 173.788 742.896C173.938 748.394 194.624 767.254 194.624 767.254C194.624 767.254 226.869 776.989 201.925 783.073C176.98 789.157 122.225 771.513 120.4 767.863C118.574 764.212 135.609 736.226 137.435 738.66C139.26 741.093 148.386 749.611 164.204 748.394Z" fill="#2F2E41"/>
<path d="M187.323 567.7C187.323 567.7 190.974 596.295 187.323 600.554C183.673 604.812 185.498 613.33 187.323 614.547C189.148 615.764 184.89 620.631 181.848 623.064C178.806 625.498 174.547 636.449 174.547 636.449C174.547 636.449 158.12 679.645 158.12 683.904C158.12 688.163 150.819 697.289 151.428 700.331C152.036 703.373 147.169 713.107 147.777 714.932C148.386 716.758 139.868 733.184 142.302 735.618C144.735 738.051 178.197 746.569 176.372 741.093C174.547 735.618 173.33 728.925 174.547 728.925C175.764 728.925 181.239 722.233 180.022 719.799C178.806 717.366 216.526 653.484 216.526 653.484L187.323 567.7Z" fill="#2F2E41"/>
<path opacity="0.1" d="M164.204 748.394C164.204 748.394 173.637 737.398 173.788 742.896C173.938 748.394 194.624 767.254 194.624 767.254C194.624 767.254 226.869 776.989 201.925 783.073C176.98 789.157 122.225 771.513 120.4 767.863C118.574 764.212 135.609 736.226 137.435 738.66C139.26 741.093 148.386 749.611 164.204 748.394Z" fill="black"/>
<path opacity="0.1" d="M187.323 567.7C187.323 567.7 190.974 596.295 187.323 600.554C183.673 604.812 185.498 613.33 187.323 614.547C189.148 615.764 184.89 620.631 181.848 623.064C178.806 625.498 174.547 636.449 174.547 636.449C174.547 636.449 158.12 679.645 158.12 683.904C158.12 688.163 150.819 697.289 151.428 700.331C152.036 703.373 147.169 713.107 147.777 714.932C148.386 716.758 139.868 733.184 142.302 735.618C144.735 738.051 178.197 746.569 176.372 741.093C174.547 735.618 173.33 728.925 174.547 728.925C175.764 728.925 181.239 722.233 180.022 719.799C178.806 717.366 216.526 653.484 216.526 653.484L187.323 567.7Z" fill="black"/>
<path d="M249.38 729.282L256.072 746.317L253.03 770.044L233.561 768.828L222.61 759.093V738.408L249.38 729.282Z" fill="#9F616A"/>
<path d="M245.729 749.967C245.729 749.967 252.422 728.065 256.072 734.149C258.384 738.056 260.418 742.122 262.156 746.317C262.156 746.317 291.967 765.785 299.877 765.785C307.786 765.785 315.087 775.52 304.744 779.17C294.401 782.821 215.309 787.688 214.093 779.17C212.876 770.653 215.309 743.275 218.96 746.317C222.61 749.359 241.47 756.051 245.729 749.967Z" fill="#2F2E41"/>
<path d="M260.939 480.447C260.939 480.447 287.755 498.67 288.972 501.104C290.189 503.538 305.748 511.02 292.972 517.104C280.196 523.188 246.338 484.706 246.338 484.706L260.939 480.447Z" fill="#9F616A"/>
<path d="M247.555 445.16C247.555 445.16 267.023 482.881 263.373 484.098C259.722 485.315 245.121 492.615 245.121 492.615L238.429 454.286L247.555 445.16Z" fill="#575A88"/>
<path opacity="0.1" d="M247.555 445.16C247.555 445.16 267.023 482.881 263.373 484.098C259.722 485.315 245.121 492.615 245.121 492.615L238.429 454.286L247.555 445.16Z" fill="black"/>
<path d="M246.338 476.797C246.338 476.797 250.596 508.433 248.771 515.126C246.946 521.818 249.988 622.204 247.554 627.679C245.121 633.155 243.296 668.442 243.296 672.701C243.296 676.959 248.163 711.638 249.38 714.68C250.596 717.722 254.247 728.065 252.422 732.932C250.596 737.799 225.652 749.967 222.002 745.708C218.351 741.45 221.393 728.065 218.351 727.456C215.309 726.848 211.659 698.253 211.659 698.253L191.582 586.308C191.582 586.308 153.861 492.615 162.379 483.489C170.896 474.363 246.338 476.797 246.338 476.797Z" fill="#2F2E41"/>
<path d="M223.827 260.816C240.291 260.816 253.639 247.469 253.639 231.005C253.639 214.54 240.291 201.193 223.827 201.193C207.363 201.193 194.016 214.54 194.016 231.005C194.016 247.469 207.363 260.816 223.827 260.816Z" fill="#9F616A"/>
<path d="M234.778 255.34C234.778 255.34 225.044 280.893 226.261 286.369C227.477 291.844 197.666 276.634 197.666 276.634C197.666 276.634 199.491 246.823 197.666 238.914C195.841 231.004 234.778 255.34 234.778 255.34Z" fill="#9F616A"/>
<path d="M153.034 421.804C153.168 426.908 153.253 429.95 153.253 429.95C153.253 429.95 151.428 457.937 154.47 467.062C157.512 476.188 157.512 482.881 159.337 488.965C159.872 490.735 167.155 491.684 177.382 492.104C186.763 492.487 198.621 492.433 210.004 492.171C228.852 491.733 246.423 490.723 249.38 490.182C256.072 488.965 248.163 478.622 250.596 473.146C253.03 467.671 246.338 397.705 246.338 397.705C246.338 397.705 246.946 358.159 243.904 342.949C240.862 327.74 229.303 303.404 226.869 300.362C224.435 297.32 226.261 295.495 231.736 291.844C237.212 288.194 231.736 274.201 231.736 274.201C221.393 265.683 195.232 264.466 195.232 264.466C195.232 264.466 155.078 305.837 152.645 314.355C151.172 319.502 151.702 360.617 152.346 392.363C152.596 404.306 152.858 414.929 153.034 421.804Z" fill="#575A88"/>
<path d="M204.358 497.482C204.358 497.482 227.477 544.937 209.226 547.979C190.974 551.021 181.848 504.783 181.848 504.783L204.358 497.482Z" fill="#9F616A"/>
<path d="M251.702 215.894C252.756 210.781 248.848 206.001 244.733 202.789C235.77 195.838 224.743 192.078 213.401 192.105C205.422 192.148 197.188 194.259 191.158 199.483C184.124 205.577 180.915 215.349 181.506 224.636C182.097 233.924 186.136 242.732 191.584 250.277C194.199 253.898 198.398 257.647 202.577 256.069C204.212 255.303 205.615 254.118 206.643 252.634C209.323 249.309 211.659 245.719 213.613 241.922C215.109 239.016 216.404 235.953 218.523 233.465C220.643 230.977 223.828 229.106 227.066 229.553C229.74 229.922 232.363 231.805 234.914 230.92C237.752 229.936 238.438 226.308 238.663 223.313C238.911 220.03 238.735 216.227 239.647 213.124C240.644 213.656 251.212 218.344 251.702 215.894Z" fill="#2F2E41"/>
<path opacity="0.1" d="M153.034 421.804C159.848 446.377 175.478 487.791 176.372 489.573C176.597 490.03 176.95 490.924 177.382 492.104C186.763 492.487 198.621 492.433 210.004 492.171C208.24 487.559 206.183 483.106 206.183 481.664C206.183 478.622 191.582 400.139 191.582 400.139C191.582 400.139 203.141 365.46 213.484 336.257C223.827 307.054 182.76 312.834 182.76 312.834C160.858 307.358 156.903 316.789 156.903 316.789C156.903 316.789 154.975 368.076 152.346 392.364C151.671 398.587 150.953 403.035 150.211 404.398C149.237 406.18 150.552 412.885 153.034 421.804Z" fill="black"/>
<path d="M191.582 293.061C191.582 293.061 219.568 304.621 209.225 333.824C198.883 363.027 187.323 397.705 187.323 397.705C187.323 397.705 201.925 476.188 201.925 479.23C201.925 482.272 211.051 498.699 207.4 501.741C203.75 504.783 179.414 510.867 178.806 507.825C178.197 504.783 173.33 489.573 172.113 487.14C170.896 484.706 142.302 408.656 145.952 401.964C148.638 397.039 150.995 351.92 152.053 328.43C152.297 321.728 154.282 315.206 157.813 309.505C161.343 303.803 166.297 299.12 172.187 295.914C177.86 292.908 184.464 291.281 191.582 293.061Z" fill="#575A88"/>
<path d="M303.972 471.104H267.972V507.104H303.972V471.104Z" fill="#FCD34D"/>
<path d="M285.972 471.104C292.047 471.104 296.972 466.179 296.972 460.104C296.972 454.029 292.047 449.104 285.972 449.104C279.897 449.104 274.972 454.029 274.972 460.104C274.972 466.179 279.897 471.104 285.972 471.104Z" fill="#3F3D56"/>
<path d="M710.972 93.1145C710.972 134.095 686.61 148.404 656.557 148.404C626.505 148.404 602.142 134.095 602.142 93.1145C602.142 52.1339 656.557 0 656.557 0C656.557 0 710.972 52.1338 710.972 93.1145Z" fill="#F2F2F2"/>
<path d="M654.575 142.135L655.132 107.838L678.325 65.408L655.22 102.458L655.47 87.037L671.455 56.339L655.537 82.956L655.987 55.22L673.104 30.78L656.058 50.858L656.339 0L654.57 67.327L654.716 64.549L637.313 37.912L654.437 69.881L652.815 100.858L652.767 100.035L632.705 72.003L652.706 102.94L652.503 106.814L652.467 106.872L652.484 107.19L648.37 185.78H653.866L654.526 145.187L674.478 114.326L654.575 142.135Z" fill="#3F3D56"/>
<path d="M842.089 154.368C829.087 193.231 801.443 199.071 772.944 189.536C744.444 180.001 725.88 158.701 738.883 119.838C751.885 80.975 820.03 48.7996 820.03 48.7996C820.03 48.7996 855.092 115.505 842.089 154.368Z" fill="#F2F2F2"/>
<path d="M773.053 182.962L784.463 150.614L819.92 117.734L786.253 145.539L791.384 130.994L816.282 106.954L792.741 127.145L801.969 100.985L825.955 83.239L803.42 96.871L819.823 48.73L796.784 112.017L797.803 109.429L789.751 78.647L795.846 114.397L784.48 143.259L784.696 142.464L774.564 109.515L783.716 145.199L782.295 148.808L782.242 148.852L782.157 149.159L753.32 222.383L758.533 224.127L772.038 185.84L800.751 162.904L773.053 182.962Z" fill="#3F3D56"/>
<path d="M571.991 123.097C586.729 161.335 569.143 183.449 541.101 194.257C513.059 205.065 485.181 200.475 470.443 162.236C455.704 123.997 487.729 55.782 487.729 55.782C487.729 55.782 557.252 84.858 571.991 123.097Z" fill="#F2F2F2"/>
<path d="M536.997 189.12L525.182 156.917L531.564 108.985L523.329 151.866L518.016 137.386L521.891 102.993L516.611 133.554L507.056 107.512L514.238 78.5521L505.554 103.417L487.526 55.8601L510.088 119.319L509.225 116.675L483.407 98.0781L510.882 121.75L520.509 151.237L520.169 150.487L491.368 131.546L521.157 153.219L522.361 156.907L522.348 156.974L522.478 157.265L546.903 232.076L552.032 230.1L538.048 191.985L545.567 156.014L536.997 189.12Z" fill="#3F3D56"/>
</g>
<defs>
<clipPath id="clip0">
<rect width="1080.97" height="784.338" fill="white"/>
</clipPath>
</defs>
</svg>
