<svg width="512" height="512" viewBox="0 0 512 512" fill="none" xmlns="http://www.w3.org/2000/svg">
<path d="M484.921 13.871L451.542 34.9469C445.782 38.5882 438.444 38.5882 432.684 34.9469L381.661 2.72618C375.901 -0.904168 368.563 -0.904168 362.803 2.72618L311.768 34.9469C306.008 38.5882 298.681 38.5882 292.921 34.9469L241.887 2.72618C236.127 -0.904168 228.789 -0.904168 223.029 2.72618L172.006 34.9469C166.246 38.5882 158.908 38.5882 153.148 34.9469L119.768 13.871C108.017 6.45583 92.6897 14.8972 92.6897 28.8007V423.747L79.3159 432.188C73.5559 435.83 66.2179 435.83 60.4579 432.188L27.0786 411.112C15.3269 403.697 0 412.139 0 426.042V465.656C0 491.256 20.7448 511.995 46.3448 511.995H466.45C491.862 511.576 512 490.307 512 464.894V28.8007C512 14.8972 496.673 6.45583 484.921 13.871V13.871Z" fill="#0F766E"/>
<path d="M482.851 205.492C494.265 195.624 512 203.798 512 218.886V464.894C512 490.422 491.618 511.994 465.644 511.994C440.044 511.994 419.31 491.244 419.31 465.655V426.041C419.31 412.138 403.983 403.697 392.232 411.123L358.852 432.188C353.092 435.829 345.755 435.829 339.995 432.188L288.971 399.967C283.211 396.337 275.873 396.337 270.113 399.967L219.079 432.188C213.319 435.829 205.992 435.829 200.232 432.188L149.197 399.967C143.437 396.337 136.099 396.337 130.339 399.967L92.6897 423.747V291.823C92.6897 280.106 103.891 271.661 115.167 274.85C245.593 311.734 381.228 293.35 482.851 205.492V205.492Z" fill="#0F766E"/>
<path d="M465.644 511.995H46.3448C20.7448 511.995 0 491.256 0 465.656V426.042C0 412.139 15.3269 403.698 27.0786 411.113L60.4579 432.189C66.2179 435.83 73.5559 435.83 79.3159 432.189L130.339 399.968C136.099 396.338 143.437 396.338 149.197 399.968L200.232 432.189C205.992 435.83 213.319 435.83 219.079 432.189L270.113 399.968C275.873 396.338 283.211 396.338 288.971 399.968L339.994 432.189C345.754 435.83 353.092 435.83 358.852 432.189L392.232 411.124C403.983 403.698 419.31 412.139 419.31 426.042V465.656C419.31 491.245 440.044 511.995 465.644 511.995V511.995Z" fill="#115E59"/>
<path d="M445.793 121.381V145.656C445.793 155.411 437.892 163.312 428.138 163.312H176.552C166.797 163.312 158.896 155.411 158.896 145.656V121.381C158.896 111.626 166.797 103.725 176.552 103.725H428.138C437.892 103.725 445.793 111.626 445.793 121.381Z" fill="#E2E8F0"/>
<path d="M197.12 283.695C176.53 279.479 170.119 276.486 170.119 265.976C170.119 256.472 181.671 248.443 195.343 248.443C204.669 248.443 213.234 252.095 217.698 257.974C220.645 261.858 226.184 262.616 230.067 259.667C233.95 256.718 234.708 251.181 231.759 247.298C225.491 239.041 215.54 233.453 204.171 231.533V219.587C204.171 214.712 200.218 210.76 195.343 210.76C190.468 210.76 186.516 214.712 186.516 219.587V231.541C167.093 234.89 152.463 249.056 152.463 265.976C152.463 292.573 176.227 297.439 193.578 300.991C214.168 305.207 220.579 308.201 220.579 318.71C220.579 328.214 209.023 336.244 195.343 336.244C186.027 336.244 177.46 332.589 172.984 326.706C170.032 322.825 164.494 322.071 160.615 325.024C156.734 327.976 155.981 333.514 158.933 337.394C165.209 345.646 175.158 351.231 186.516 353.151V365.098C186.516 369.973 190.468 373.926 195.343 373.926C200.218 373.926 204.171 369.973 204.171 365.098V353.145C223.6 349.796 238.234 335.63 238.234 318.709C238.234 292.114 214.471 287.249 197.12 283.695V283.695Z" fill="#E2E8F0"/>
<path d="M292.414 231.725H445.793C450.668 231.725 454.621 227.773 454.621 222.898C454.621 218.023 450.668 214.07 445.793 214.07H292.414C287.539 214.07 283.586 218.023 283.586 222.898C283.586 227.773 287.539 231.725 292.414 231.725Z" fill="#E2E8F0"/>
<path d="M445.793 275.863H292.414C287.539 275.863 283.586 279.816 283.586 284.691C283.586 289.566 287.539 293.518 292.414 293.518H445.793C450.668 293.518 454.621 289.566 454.621 284.691C454.621 279.816 450.668 275.863 445.793 275.863V275.863Z" fill="#E2E8F0"/>
<path d="M445.793 337.656H325.517C320.642 337.656 316.69 341.609 316.69 346.484C316.69 351.359 320.642 355.311 325.517 355.311H445.793C450.668 355.311 454.621 351.359 454.621 346.484C454.621 341.609 450.668 337.656 445.793 337.656Z" fill="#E2E8F0"/>
</svg>
