<svg width="712" height="712" viewBox="0 0 712 712" fill="none" xmlns="http://www.w3.org/2000/svg">
<circle cx="356" cy="356" r="356" fill="url(#paint0_linear)"/>
<g clip-path="url(#clip0)">
<path d="M200.051 524.861C190.91 524.861 182 523.912 173.389 522.114C176.945 545.559 178.753 569.294 178.783 593.008C207.043 583.608 235.842 576.736 264.921 572.44C250.207 557.996 239.089 540.215 232.586 520.756C222.057 523.473 211.149 524.861 200.051 524.861V524.861Z" fill="white"/>
<path d="M479.221 520.736C472.598 540.644 461.36 558.256 446.856 572.44C475.945 576.726 504.754 583.608 533.024 593.008C533.054 569.294 534.862 545.569 538.418 522.114C519.234 526.171 498.272 525.734 479.221 520.736Z" fill="white"/>
<path d="M590.732 333.527C565.629 374.213 522.854 402.882 473.188 408.746C434.125 451.341 371.372 469.668 315.517 454.647C303.477 478.057 284.018 497.626 260.576 509.937C292.406 607.675 433.63 599.974 454.078 498.708C454.078 498.71 457.525 480.849 457.525 480.849L474.396 487.651C567.629 525.375 653.031 414.242 590.732 333.527V333.527Z" fill="white"/>
<path d="M200.051 494.893C235.41 495.262 269.887 475.086 287.067 444.248C268.895 435.59 252.419 423.443 238.749 408.766C190.715 403.414 146.306 374.982 121.035 333.586C69.9471 399.568 117.972 495.05 200.051 494.893V494.893Z" fill="white"/>
<path d="M161.902 338.072C176.176 353.495 193.718 365.083 213.037 372.085C163.042 277.16 225.489 156.887 330.081 141.383C199.501 59.005 60.2227 221.945 161.902 338.072V338.072Z" fill="white"/>
<path d="M487.662 201.418C533.858 266.54 501.083 355.698 425.688 371.206C416.679 373.144 407.6 374.317 398.648 374.952C417.504 378.654 442.229 380.813 464.647 379.487C532.262 374.134 584.683 317.094 584.539 249.617C585.45 146.894 467.192 83.5127 382.315 140.993C426.998 146.837 463.818 167.784 487.662 201.418V201.418Z" fill="white"/>
<path d="M225.623 299.553C226.202 403.252 340.182 464.571 426.787 408.836C372.316 405.163 306.382 383.961 290.124 327.913C290.114 327.893 290.114 327.873 290.104 327.863C279.213 296.796 293.208 260.978 321.62 245.221C384.848 210.261 452.568 281.547 414.491 342.877C472.306 334.096 498.002 269.004 463.217 218.75C434.219 177.854 388.848 169.273 355.903 169.273C285.128 168.926 225.337 227.544 225.623 299.553V299.553Z" fill="white"/>
<path d="M316.416 305.157C316.031 326.604 333.788 345.19 355.903 345.094C377.68 345.094 395.391 327.383 395.391 305.606C393.263 253.48 319.109 253.118 316.416 305.157V305.157Z" fill="white"/>
</g>
<defs>
<linearGradient id="paint0_linear" x1="481.5" y1="97" x2="169.5" y2="647.5" gradientUnits="userSpaceOnUse">
<stop stop-color="#FF49C1"/>
<stop offset="1" stop-color="#D91E6C"/>
</linearGradient>
<clipPath id="clip0">
<rect width="512" height="512" fill="white" transform="translate(100 100)"/>
</clipPath>
</defs>
</svg>
