<svg width="32" height="32" viewBox="0 0 32 32" fill="none" xmlns="http://www.w3.org/2000/svg">
<path d="M16 32C24.8366 32 32 24.8366 32 16C32 7.16344 24.8366 0 16 0C7.16344 0 0 7.16344 0 16C0 24.8366 7.16344 32 16 32Z" fill="url(#paint0_linear_501_13)"/>
<path d="M8.99077 23.5893C8.57994 23.5893 8.17949 23.5466 7.79248 23.4658C7.9523 24.5195 8.03356 25.5863 8.03491 26.6521C9.30502 26.2296 10.5994 25.9207 11.9063 25.7277C11.245 25.0785 10.7453 24.2793 10.453 23.4048C9.97981 23.5269 9.48956 23.5893 8.99077 23.5893Z" fill="white"/>
<path d="M21.5376 23.4043C21.24 24.299 20.7349 25.0906 20.083 25.7281C21.3904 25.9207 22.6852 26.23 23.9557 26.6525C23.9571 25.5867 24.0383 24.5204 24.1982 23.4662C23.336 23.6486 22.3938 23.6289 21.5376 23.4043Z" fill="white"/>
<path d="M26.5494 14.9902C25.4212 16.8188 23.4987 18.1073 21.2665 18.3709C19.5109 20.2852 16.6905 21.1089 14.1802 20.4338C13.6391 21.486 12.7645 22.3655 11.7109 22.9188C13.1415 27.3115 19.4886 26.9654 20.4077 22.4141C20.4077 22.4142 20.5626 21.6114 20.5626 21.6114L21.3208 21.9172C25.5111 23.6126 29.3494 18.6179 26.5494 14.9902Z" fill="white"/>
<path d="M8.99082 22.2424C10.58 22.259 12.1295 21.3522 12.9016 19.9662C12.0849 19.5771 11.3444 19.0312 10.7301 18.3716C8.57122 18.131 6.57531 16.8532 5.43954 14.9927C3.14345 17.9582 5.30187 22.2495 8.99082 22.2424Z" fill="white"/>
<path d="M7.27624 15.1945C7.91777 15.8876 8.70617 16.4084 9.57444 16.7231C7.32748 12.4568 10.1341 7.05132 14.8348 6.35451C8.96608 2.65213 2.70638 9.97527 7.27624 15.1945Z" fill="white"/>
<path d="M21.9173 9.05294C23.9935 11.9798 22.5205 15.9869 19.132 16.6839C18.7271 16.771 18.319 16.8237 17.9167 16.8522C18.7641 17.0186 19.8754 17.1156 20.8829 17.056C23.9218 16.8155 26.2778 14.2519 26.2713 11.2192C26.3123 6.60243 20.9973 3.75383 17.1826 6.33721C19.1908 6.59986 20.8457 7.5413 21.9173 9.05294Z" fill="white"/>
<path d="M10.1402 13.4633C10.1662 18.1239 15.2889 20.8798 19.1813 18.3749C16.7331 18.2098 13.7698 17.2569 13.0391 14.7379C13.0387 14.737 13.0387 14.7361 13.0382 14.7356C12.5487 13.3394 13.1777 11.7296 14.4547 11.0214C17.2964 9.45014 20.34 12.654 18.6286 15.4104C21.2271 15.0158 22.3819 12.0903 20.8186 9.83167C19.5153 7.99364 17.4761 7.60798 15.9955 7.60798C12.8146 7.59238 10.1273 10.2269 10.1402 13.4633Z" fill="white"/>
<path d="M14.2205 13.7153C14.2032 14.6792 15.0013 15.5145 15.9952 15.5102C16.9739 15.5102 17.7699 14.7142 17.7699 13.7354C17.6743 11.3927 14.3415 11.3764 14.2205 13.7153Z" fill="white"/>
<defs>
<linearGradient id="paint0_linear_501_13" x1="21.6404" y1="4.35955" x2="7.61798" y2="29.1011" gradientUnits="userSpaceOnUse">
<stop stop-color="#FF49C1"/>
<stop offset="1" stop-color="#D91E6C"/>
</linearGradient>
</defs>
</svg>
