<svg width="508" height="508" viewBox="0 0 508 508" fill="none" xmlns="http://www.w3.org/2000/svg">
<path d="M253.55 403.4C364.946 403.4 455.25 313.096 455.25 201.7C455.25 90.3042 364.946 0 253.55 0C142.154 0 51.8501 90.3042 51.8501 201.7C51.8501 313.096 142.154 403.4 253.55 403.4Z" fill="#FCD34D"/>
<path d="M90.15 319.7L20.75 440L101.75 435.7L138.55 508L202.75 396.7C156.75 384.8 117.25 357.1 90.15 319.7Z" fill="#115E59"/>
<path d="M417.35 319.1C390.45 356.6 350.95 384.4 305.05 396.5L369.45 508L406.25 435.7L487.25 440L417.35 319.1Z" fill="#115E59"/>
<path d="M253.55 347.9C334.294 347.9 399.75 282.444 399.75 201.7C399.75 120.956 334.294 55.5 253.55 55.5C172.806 55.5 107.35 120.956 107.35 201.7C107.35 282.444 172.806 347.9 253.55 347.9Z" fill="#FBBF24"/>
<path d="M353.75 185.9C358.25 181.5 355.75 173.8 349.55 172.9L291.85 164.5C289.35 164.1 287.25 162.6 286.15 160.3L260.35 108C257.55 102.3 249.45 102.3 246.65 108L220.95 160.3C219.85 162.5 217.65 164.1 215.25 164.5L157.55 172.9C151.35 173.8 148.85 181.5 153.35 185.9L195.05 226.6C196.85 228.4 197.65 230.9 197.25 233.3L187.45 290.7C186.35 296.9 192.95 301.7 198.55 298.7L250.15 271.6C252.35 270.4 255.05 270.4 257.25 271.6L308.85 298.7C314.45 301.6 320.95 296.9 319.95 290.7L310.05 233.3C309.65 230.8 310.45 228.3 312.25 226.6L353.75 185.9Z" fill="#F8FAFC"/>
</svg>
