<svg width="512" height="512" viewBox="0 0 512 512" fill="none" xmlns="http://www.w3.org/2000/svg">
<g clip-path="url(#clip0)">
<path fill-rule="evenodd" clip-rule="evenodd" d="M312.407 69.7228L342.619 33.3558C345.149 30.3148 343.432 25.5288 339.998 23.5718L309.877 6.16983C306.473 4.21283 301.443 5.11583 300.088 8.81883L283.672 53.1338C282.286 56.8368 282.889 60.9608 286.293 62.9178L302.619 72.3708C306.052 74.3288 309.907 72.7628 312.407 69.7228V69.7228Z" fill="#0F766E"/>
<path fill-rule="evenodd" clip-rule="evenodd" d="M481.148 79.2359L473.406 57.4999C472.472 54.8509 472.111 52.5929 473.195 50.2149L483.286 28.2679C485.425 23.9929 484.943 22.9999 480.123 23.0899L455.454 23.5719C452.653 23.6019 452.291 22.9399 450.454 21.1639L433.526 4.75493C430.092 1.44293 428.646 1.83493 427.321 6.41093L420.875 29.0799C420.152 31.5489 420.182 32.3009 417.742 33.6559L396.115 45.5779C391.928 47.8959 391.988 49.0099 395.994 51.6589L415.724 65.5979C417.832 67.1029 418.646 69.2709 419.158 72.0409L423.345 94.7099C424.068 99.4669 425.182 99.7679 429.008 96.8779L447.111 82.9389C448.979 81.4939 452.322 80.5909 454.671 80.9219L477.292 83.9329C482.081 84.5339 482.865 83.7209 481.148 79.2359V79.2359Z" fill="#FCD34D"/>
<path fill-rule="evenodd" clip-rule="evenodd" d="M209.483 218.141C257.165 156.606 244.815 95.914 235.93 59.727C225.99 19.266 169.723 28.869 181.229 71.679C192.344 113.044 196.35 144.504 185.085 202.697L209.483 218.141Z" fill="#7C3AED"/>
<path fill-rule="evenodd" clip-rule="evenodd" d="M267.707 270.344L394.97 164.674C399.097 160.55 399.097 153.806 394.97 149.682L361.836 116.596C357.709 112.472 350.962 112.472 346.836 116.596L241.11 243.761L267.707 270.344Z" fill="#FCD34D"/>
<path fill-rule="evenodd" clip-rule="evenodd" d="M437.14 339.044C479.34 352.682 491.78 297.017 451.839 285.035C416.416 274.408 357.077 259.175 293.732 302.376L309.726 328.086C366.325 320.469 397.139 326.099 437.14 339.044Z" fill="#7C3AED"/>
<path fill-rule="evenodd" clip-rule="evenodd" d="M209.483 218.141C257.165 156.606 244.815 95.914 235.93 59.727C230.327 36.847 209.845 29.953 195.236 36.064C202.525 40.008 208.7 47.323 211.411 58.372C219.815 92.632 231.351 148.899 191.983 207.062L209.483 218.141Z" fill="#6D28D9"/>
<path fill-rule="evenodd" clip-rule="evenodd" d="M267.707 270.344L394.97 164.674C399.097 160.55 399.097 153.806 394.97 149.682L389.066 143.781L253.641 256.255L267.707 270.344Z" fill="#FBBF24"/>
<path fill-rule="evenodd" clip-rule="evenodd" d="M437.14 339.044C478.196 352.32 491.087 299.997 455.002 286.119C454.58 301.111 442.291 314.96 419.218 310.685C380.301 303.46 350.27 301.623 300.841 313.816L309.727 328.086C366.325 320.469 397.139 326.099 437.14 339.044V339.044Z" fill="#6D28D9"/>
<path fill-rule="evenodd" clip-rule="evenodd" d="M68.575 210.645L62.822 148.929C62.34 143.811 56.316 140.951 51.316 142.306L7.27801 154.108C2.27801 155.433 -1.54799 160.912 0.621007 165.608L26.525 221.905C28.694 226.601 33.031 229.883 38.031 228.558L61.917 222.146C66.918 220.821 69.057 215.793 68.575 210.645V210.645Z" fill="#0F766E"/>
<path fill-rule="evenodd" clip-rule="evenodd" d="M111.769 71.9199L133.185 56.7769C137.522 53.8869 137.583 52.6829 133.034 50.1839L109.57 37.2389C106.919 35.7639 106.949 34.9509 106.166 32.2719L99.148 7.67594C97.732 2.67894 96.166 2.25694 92.431 5.86994L74.057 23.6609C72.039 25.6179 71.677 26.3399 68.635 26.2799L41.827 25.7679C36.616 25.6479 36.074 26.7309 38.423 31.3979L49.387 55.2109C50.562 57.7699 50.17 60.2389 49.146 63.1289L40.742 86.7009C38.874 91.5479 39.748 92.4509 44.929 91.7889L69.478 88.5079C72.038 88.1769 75.653 89.1399 77.701 90.7059L97.31 105.849C101.467 108.98 102.672 108.649 103.485 103.501L108.003 78.9049C108.576 75.8939 109.449 73.5459 111.769 71.9199V71.9199Z" fill="#FCD34D"/>
<path fill-rule="evenodd" clip-rule="evenodd" d="M501.48 209.2L511.902 148.116C512.776 143.028 507.685 138.723 502.504 138.723H456.9C451.749 138.723 446.629 143.028 447.502 148.116L457.954 209.2C458.828 214.288 462.171 218.593 467.352 218.593H492.082C497.232 218.593 500.606 214.288 501.48 209.2V209.2Z" fill="#0F766E"/>
<path fill-rule="evenodd" clip-rule="evenodd" d="M492.413 430.745L509.221 410.544C512.685 406.63 512.414 405.456 507.353 404.192L481.298 397.749C478.346 397.026 478.165 396.244 476.72 393.835L463.557 371.858C460.906 367.402 459.28 367.402 456.599 371.858L443.436 393.835C441.99 396.243 441.809 397.026 438.858 397.749L412.803 404.192C407.743 405.456 407.502 406.631 410.966 410.544L427.744 430.745C429.551 432.913 429.792 435.411 429.551 438.452L427.563 463.439C426.991 468.617 428.075 469.249 432.925 467.292L455.817 457.749C458.227 456.756 461.962 456.756 464.341 457.749L487.263 467.292C492.082 469.249 493.167 468.617 492.625 463.439L490.607 438.452C490.365 435.411 490.606 432.912 492.413 430.745V430.745Z" fill="#FCD34D"/>
<path fill-rule="evenodd" clip-rule="evenodd" d="M377.861 464.794L331.263 431.799C327.377 429.029 322.377 428.427 319.004 431.799L302.919 447.875C299.545 451.247 300.148 456.244 302.919 460.128L335.932 506.701C338.673 510.585 344.788 510.073 348.161 506.701L377.861 477.017C381.235 473.645 381.747 467.533 377.861 464.794V464.794Z" fill="#0F766E"/>
<path fill-rule="evenodd" clip-rule="evenodd" d="M309.787 292.562C301.714 281.122 292.407 269.501 282.376 258.182C278.008 253.245 273.49 248.368 268.882 243.581C268.822 243.491 268.731 243.4 268.641 243.34C263.611 238.463 258.49 233.736 253.279 229.13C242.375 219.526 231.23 210.615 220.206 202.788C220.176 202.788 220.176 202.788 220.176 202.788C213.971 198.363 207.826 194.328 201.802 190.716C197.254 187.976 192.796 185.508 188.428 183.28C157.403 167.565 131.378 165.578 121.709 188.849C121.498 189.331 119.811 193.907 118.516 196.737L108.696 224.313L92.19 270.675L68.304 337.78L49.538 390.585L28.603 449.35C23.452 463.861 25.019 474.669 31.675 480.178C37.187 486.831 48.001 488.397 62.519 483.249L121.316 462.326L174.149 443.57L241.29 419.697L287.677 403.199L315.268 393.385C318.099 392.09 322.678 390.405 323.16 390.194C345.841 380.801 344.546 355.814 329.877 325.829C327.287 320.5 324.244 315.021 320.871 309.422C317.528 303.883 313.823 298.253 309.816 292.593C309.787 292.592 309.787 292.562 309.787 292.562V292.562Z" fill="#0F766E"/>
<path fill-rule="evenodd" clip-rule="evenodd" d="M282.376 258.181C278.008 253.244 273.49 248.367 268.882 243.58C268.822 243.49 268.731 243.399 268.641 243.339C263.611 238.462 258.49 233.735 253.279 229.129C252.978 228.888 252.707 228.617 252.405 228.376C242.103 219.344 231.561 210.915 221.139 203.449C220.838 203.238 220.506 202.997 220.205 202.787C220.175 202.787 220.175 202.787 220.175 202.787C213.97 198.362 207.825 194.327 201.801 190.685C197.343 188.036 192.885 185.537 188.427 183.279C175.656 176.806 163.697 172.682 153.426 171.658C164.722 178.311 175.987 186.199 186.62 194.508C189.632 196.856 192.614 199.235 195.506 201.643C199.362 204.804 203.066 207.995 206.651 211.156C208.278 212.571 209.874 214.016 211.501 215.461V215.491C215.055 218.712 218.58 221.994 222.013 225.335L222.284 225.576C236.953 240.779 251.411 257.909 263.189 274.587C270.448 284.763 277.979 297.015 283.25 307.823C297.919 337.838 299.214 362.795 276.533 372.218C276.443 372.248 276.172 372.338 275.81 372.489C281.563 383.477 285.69 393.864 287.678 403.196L315.269 393.382C318.1 392.087 322.679 390.402 323.161 390.191C345.842 380.798 344.547 355.811 329.878 325.826C329.788 325.615 329.697 325.435 329.577 325.224C327.077 320.136 324.095 314.747 320.872 309.419C320.601 308.967 320.3 308.516 320.029 308.034C320.029 308.034 319.999 308.004 319.999 307.974C316.716 302.615 313.222 297.377 309.818 292.59C309.788 292.59 309.788 292.56 309.788 292.56C302.348 281.993 293.854 271.306 284.727 260.829C283.943 259.928 283.16 259.055 282.376 258.181V258.181Z" fill="#115E59"/>
<path fill-rule="evenodd" clip-rule="evenodd" d="M287.678 403.199C281.232 372.793 251.954 331.037 217.043 294.91C180.897 260.018 139.119 230.756 108.696 224.313L92.1899 270.675C119.058 282.958 150.385 306.591 178.367 333.565C205.356 361.533 229.001 392.842 241.291 419.696L287.678 403.199Z" fill="#FCD34D"/>
<path fill-rule="evenodd" clip-rule="evenodd" d="M174.15 443.57L241.291 419.697C237.104 410.515 231.562 400.821 225.025 390.916L154.119 416.114C161.469 425.296 168.246 434.508 174.15 443.57Z" fill="#115E59"/>
<path fill-rule="evenodd" clip-rule="evenodd" d="M287.678 403.199C285.69 393.866 281.563 383.48 275.81 372.492C274.274 373.064 270.9 374.359 268.641 375.412L225.025 390.916C231.561 400.821 237.104 410.515 241.291 419.697L287.678 403.199Z" fill="#FBBF24"/>
<path fill-rule="evenodd" clip-rule="evenodd" d="M174.15 443.57C161.469 424.152 144.872 403.891 126.769 385.136C108.003 367.043 87.7321 350.455 68.3031 337.78L49.5371 390.585C62.5801 400.55 75.6521 411.839 88.0621 423.821C100.05 436.224 111.346 449.29 121.316 462.326L174.15 443.57Z" fill="#FCD34D"/>
<path fill-rule="evenodd" clip-rule="evenodd" d="M121.317 462.325C114.479 453.384 107.009 444.412 99.1179 435.652L25.6819 461.753C24.8989 470.062 27.0679 476.384 31.6759 480.177C37.1879 486.83 48.0019 488.396 62.5199 483.248L121.317 462.325Z" fill="#115E59"/>
<path fill-rule="evenodd" clip-rule="evenodd" d="M174.15 443.57C168.246 434.508 161.469 425.296 154.119 416.114L99.1169 435.652C107.009 444.413 114.479 453.384 121.316 462.325L174.15 443.57Z" fill="#FBBF24"/>
<path fill-rule="evenodd" clip-rule="evenodd" d="M111.769 71.9199L133.185 56.7769C137.522 53.8869 137.583 52.6829 133.034 50.1839L109.57 37.2389C106.919 35.7639 106.949 34.9509 106.166 32.2719L99.1479 7.67594C97.7319 2.67894 96.1659 2.25694 92.4309 5.86994L84.3279 13.7269C87.6109 24.3839 89.4189 36.1249 89.4189 48.4379C89.4189 64.7249 86.2559 79.9879 80.7439 93.0539L97.3109 105.849C101.468 108.98 102.673 108.649 103.486 103.501L108.004 78.9049C108.576 75.8939 109.449 73.5459 111.769 71.9199Z" fill="#FBBF24"/>
<path fill-rule="evenodd" clip-rule="evenodd" d="M68.5751 210.645L62.8221 148.929C62.3401 143.811 56.3161 140.951 51.3161 142.306L41.1951 145.015C42.3091 151.548 42.8821 158.382 42.8821 165.396C42.8821 187.614 37.0081 207.905 27.3091 223.379C29.6281 227.263 33.5741 229.731 38.0321 228.557L61.9181 222.145C66.9181 220.821 69.0571 215.793 68.5751 210.645V210.645Z" fill="#115E59"/>
<path fill-rule="evenodd" clip-rule="evenodd" d="M342.619 33.355C345.149 30.314 343.432 25.528 339.998 23.571L309.877 6.16995C308.07 5.14595 305.871 4.90595 303.943 5.44695C307.648 16.646 309.696 29.11 309.696 42.266C309.696 53.164 308.28 63.611 305.69 73.244C308.19 73.274 310.63 71.889 312.407 69.722L342.619 33.355Z" fill="#115E59"/>
<path fill-rule="evenodd" clip-rule="evenodd" d="M473.406 57.4999C472.472 54.8509 472.111 52.5929 473.195 50.2149L483.286 28.2679C485.425 23.9929 484.943 22.9999 480.123 23.0899L455.454 23.5719C452.653 23.6019 452.291 22.9399 450.454 21.1639L441.177 12.1929C442.563 19.4179 443.285 27.0049 443.285 34.8319C443.285 59.5789 435.966 81.9469 424.218 97.9029C425.031 99.3479 426.387 98.8659 429.007 96.8789L447.11 82.9399C448.978 81.4949 452.321 80.5919 454.67 80.9229L477.291 83.9339C482.08 84.5359 482.863 83.7229 481.147 79.2379L473.406 57.4999Z" fill="#FBBF24"/>
<path fill-rule="evenodd" clip-rule="evenodd" d="M501.48 209.2L511.902 148.116C512.776 143.028 507.685 138.723 502.504 138.723H482.654C483.015 142.516 483.196 146.4 483.196 150.344C483.196 176.746 474.882 200.409 461.75 216.515C463.256 217.81 465.124 218.592 467.353 218.592H492.083C497.232 218.593 500.606 214.288 501.48 209.2V209.2Z" fill="#115E59"/>
<path fill-rule="evenodd" clip-rule="evenodd" d="M348.162 506.7L377.862 477.016C381.236 473.644 381.748 467.533 377.862 464.793L333.132 433.122C335.753 442.786 337.168 453.232 337.168 464.161C337.168 477.136 335.15 489.449 331.565 500.528L335.933 506.7C338.673 510.584 344.788 510.072 348.162 506.7V506.7Z" fill="#115E59"/>
<path fill-rule="evenodd" clip-rule="evenodd" d="M492.413 430.745L509.221 410.544C512.685 406.63 512.414 405.456 507.353 404.192L481.298 397.749C478.346 397.026 478.165 396.244 476.72 393.835L463.557 371.858C460.906 367.402 459.28 367.402 456.599 371.858L452.382 378.903C456.539 390.644 458.858 403.86 458.858 417.859C458.858 432.972 456.147 447.212 451.358 459.615L455.816 457.748C458.226 456.755 461.961 456.755 464.34 457.748L487.262 467.291C492.081 469.248 493.166 468.616 492.624 463.438L490.606 438.451C490.365 435.411 490.606 432.912 492.413 430.745V430.745Z" fill="#FBBF24"/>
</g>
<defs>
<clipPath id="clip0">
<rect width="512" height="512" fill="white"/>
</clipPath>
</defs>
</svg>
