<svg width="512" height="512" viewBox="0 0 512 512" fill="none" xmlns="http://www.w3.org/2000/svg">
<path d="M287.819 374.18C281.962 368.323 272.464 368.322 266.606 374.18L256 384.787L245.394 374.18C239.538 368.323 230.04 368.322 224.181 374.18C218.323 380.038 218.323 389.535 224.181 395.393L234.787 406L224.18 416.607C218.322 422.465 218.322 431.962 224.18 437.82C230.037 443.677 239.535 443.678 245.393 437.82L256 427.213L266.606 437.82C272.463 443.678 281.96 443.678 287.819 437.82C293.677 431.962 293.677 422.465 287.819 416.607L277.213 406L287.82 395.393C293.678 389.535 293.678 380.038 287.819 374.18ZM286 301H226C217.716 301 211 307.716 211 316C211 324.284 217.716 331 226 331H286C294.284 331 301 324.284 301 316C301 307.716 294.284 301 286 301ZM166 391H106C97.716 391 91 397.716 91 406C91 414.284 97.716 421 106 421H166C174.284 421 181 414.284 181 406C181 397.716 174.284 391 166 391ZM104.181 257.82C110.038 263.678 119.536 263.678 125.394 257.82L136 247.213L146.606 257.82C152.462 263.678 161.96 263.678 167.819 257.82C173.677 251.962 173.677 242.465 167.819 236.607L157.213 226L167.819 215.393C173.677 209.535 173.677 200.038 167.819 194.18C161.962 188.322 152.464 188.322 146.606 194.18L136 204.787L125.394 194.18C119.537 188.322 110.039 188.322 104.181 194.18C98.323 200.038 98.323 209.535 104.181 215.393L114.787 226L104.181 236.607C98.322 242.465 98.322 251.962 104.181 257.82ZM166 301H106C97.716 301 91 307.716 91 316C91 324.284 97.716 331 106 331H166C174.284 331 181 324.284 181 316C181 307.716 174.284 301 166 301ZM286 211H226C217.716 211 211 217.716 211 226C211 234.284 217.716 241 226 241H286C294.284 241 301 234.284 301 226C301 217.716 294.284 211 286 211ZM467 61H421V15C421 6.716 414.284 0 406 0C397.716 0 391 6.716 391 15V61H271V15C271 6.716 264.284 0 256 0C247.716 0 241 6.716 241 15V61H121V15C121 6.716 114.284 0 106 0C97.716 0 91 6.716 91 15V61H45C20.187 61 0 81.187 0 106V467C0 491.813 20.187 512 45 512H467C491.813 512 512 491.813 512 467V106C512 81.187 491.813 61 467 61ZM482 467C482 475.271 475.271 482 467 482H45C36.729 482 30 475.271 30 467V106C30 97.729 36.729 91 45 91H91V121H76C67.716 121 61 127.716 61 136C61 144.284 67.716 151 76 151H136C144.284 151 151 144.284 151 136C151 127.716 144.284 121 136 121H121V91H241V121H226C217.716 121 211 127.716 211 136C211 144.284 217.716 151 226 151H286C294.284 151 301 144.284 301 136C301 127.716 294.284 121 286 121H271V91H391V121H376C367.716 121 361 127.716 361 136C361 144.284 367.716 151 376 151H436C444.284 151 451 144.284 451 136C451 127.716 444.284 121 436 121H421V91H467C475.271 91 482 97.729 482 106V467ZM406 211H346C337.716 211 331 217.716 331 226C331 234.284 337.716 241 346 241H406C414.284 241 421 234.284 421 226C421 217.716 414.284 211 406 211ZM344.181 347.82C350.039 353.678 359.536 353.678 365.394 347.82L376 337.213L386.606 347.82C392.463 353.678 401.96 353.678 407.819 347.82C413.677 341.962 413.677 332.465 407.819 326.607L397.213 316L407.819 305.393C413.677 299.535 413.677 290.038 407.819 284.18C401.962 278.322 392.464 278.322 386.606 284.18L376 294.787L365.394 284.18C359.538 278.322 350.04 278.322 344.181 284.18C338.323 290.038 338.323 299.535 344.181 305.393L354.787 316L344.181 326.607C338.322 332.465 338.322 341.962 344.181 347.82ZM406 391H346C337.716 391 331 397.716 331 406C331 414.284 337.716 421 346 421H406C414.284 421 421 414.284 421 406C421 397.716 414.284 391 406 391Z" fill="url(#paint0_linear)"/>
<defs>
<linearGradient id="paint0_linear" x1="256" y1="512" x2="256" y2="0" gradientUnits="userSpaceOnUse">
<stop stop-color="#D91E6C"/>
<stop offset="1" stop-color="#FF49C1"/>
</linearGradient>
</defs>
</svg>
