<svg width="512" height="512" viewBox="0 0 512 512" fill="none" xmlns="http://www.w3.org/2000/svg">
<path d="M316 196V156H236V196H316ZM40 452V60C40 48.972 48.972 40 60 40H332C343.028 40 352 48.972 352 60V196H392V60C392 26.916 365.084 0 332 0H60C26.916 0 0 26.916 0 60V452C0 485.084 26.916 512 60 512H236V472H60C48.972 472 40 463.028 40 452ZM201.858 81.858L136 147.716L110.142 121.858L81.858 150.142L136 204.284L230.142 110.142L201.858 81.858ZM372 232C294.804 232 232 294.804 232 372C232 449.196 294.804 512 372 512C449.196 512 512 449.196 512 372C512 294.804 449.196 232 372 232ZM372 472C316.86 472 272 427.14 272 372C272 316.86 316.86 272 372 272C427.14 272 472 316.86 472 372C472 427.14 427.14 472 372 472ZM392 312H352V392H432V352H392V312ZM110.142 321.858L81.858 350.142L136 404.284L230.142 310.142L201.858 281.858L136 347.716L110.142 321.858Z" fill="url(#paint0_linear)"/>
<defs>
<linearGradient id="paint0_linear" x1="256" y1="512" x2="256" y2="0" gradientUnits="userSpaceOnUse">
<stop stop-color="#D91E6C"/>
<stop offset="1" stop-color="#FF49C1"/>
</linearGradient>
</defs>
</svg>
